<svg width="14" height="15" viewBox="0 0 14 15" fill="none" xmlns="http://www.w3.org/2000/svg">
<g opacity="0.2">
<path d="M12.4187 3.33143L5.76627 5.49284C5.68819 5.54315 5.59855 5.57266 5.50586 5.57856L3.22184 6.31964H12.7247C12.8685 6.31964 13.0065 6.3768 13.1083 6.47855C13.21 6.58029 13.2672 6.71828 13.2672 6.86217V12.2874C13.2672 13.0068 12.9814 13.6968 12.4727 14.2055C11.964 14.7142 11.274 15 10.5546 15H2.95926C2.23983 15 1.54987 14.7142 1.04115 14.2055C0.532441 13.6968 0.246649 13.0068 0.246649 12.2874V6.86217C0.246649 6.74715 0.282455 6.63973 0.344303 6.55076L0.132719 5.89756C-0.0895401 5.21338 -0.0309297 4.46894 0.295658 3.82797C0.622246 3.187 1.19006 2.70201 1.87422 2.47967L9.09736 0.132719C9.78153 -0.0895401 10.526 -0.0309298 11.1669 0.295658C11.8079 0.622246 12.2929 1.19006 12.5152 1.87422L12.767 2.64785C12.8115 2.78455 12.7999 2.93331 12.7348 3.06148C12.6697 3.18965 12.5564 3.28674 12.4198 3.33143H12.4187ZM8.35627 3.51046L9.75164 1.09515C9.64325 1.10759 9.53638 1.13086 9.43264 1.1646L8.08175 1.60295L6.66252 4.06058L8.35627 3.51046ZM10.8464 1.36316C10.8401 1.37681 10.8332 1.39021 10.8258 1.40331L9.8992 3.00917L11.568 2.46665L11.4834 2.20949C11.3718 1.86402 11.1475 1.56599 10.8464 1.36316ZM6.53882 2.10425L4.84615 2.65436L3.42691 5.11199L5.12067 4.56187L6.53991 2.10425H6.53882ZM1.24923 5.82052L1.88615 5.61436L3.30539 3.15565L2.20949 3.51155C1.7992 3.64518 1.45877 3.93626 1.26303 4.32082C1.06729 4.70537 1.03228 5.15192 1.16568 5.56228L1.24923 5.82052ZM1.33169 7.40469V12.2874C1.33169 12.719 1.50317 13.133 1.8084 13.4383C2.11362 13.7435 2.5276 13.915 2.95926 13.915H10.5546C10.9862 13.915 11.4002 13.7435 11.7054 13.4383C12.0107 13.133 12.1821 12.719 12.1821 12.2874V7.40469H1.33169Z" fill="#070707"/>
</g>
</svg>
