<svg width="14" height="15" viewBox="0 0 14 15" fill="none" xmlns="http://www.w3.org/2000/svg">
<path d="M13.3333 11.6667V3.33333C13.3333 1.52667 10.2808 0 6.66667 0C3.0525 0 0 1.52667 0 3.33333V11.6667C0 13.4733 3.0525 15 6.66667 15C10.2808 15 13.3333 13.4733 13.3333 11.6667ZM6.66667 1.66667C9.7425 1.66667 11.6092 2.9225 11.6667 3.32833C11.6092 3.74417 9.7425 5 6.66667 5C3.59083 5 1.72417 3.74417 1.66667 3.33833C1.72417 2.9225 3.59083 1.66667 6.66667 1.66667ZM1.66667 5.50583C2.89917 6.21167 4.6975 6.66667 6.66667 6.66667C8.63583 6.66667 10.4342 6.21167 11.6667 5.50583V7.495C11.6092 7.91083 9.7425 9.16667 6.66667 9.16667C3.59083 9.16667 1.72417 7.91083 1.66667 7.5V5.50583ZM1.66667 11.6667V9.6725C2.89917 10.3783 4.6975 10.8333 6.66667 10.8333C8.63583 10.8333 10.4342 10.3783 11.6667 9.6725V11.6617C11.6092 12.0775 9.7425 13.3333 6.66667 13.3333C3.59083 13.3333 1.72417 12.0775 1.66667 11.6667Z" fill="white"/>
</svg>
