<svg width="70" height="70" viewBox="0 0 70 70" fill="none" xmlns="http://www.w3.org/2000/svg">
<path d="M17.5 12.25C17.5 15.155 15.155 17.5 12.25 17.5C9.345 17.5 7 15.155 7 12.25C7 9.345 9.345 7 12.25 7C15.155 7 17.5 9.345 17.5 12.25ZM35.105 24.465H34.86L30.8 36.05H39.165L35.105 24.465ZM32.515 19.25H37.52L48.055 47.25H43.19L40.67 40.11H29.365L26.81 47.25H21.98L32.515 19.25Z" fill="#124A80"/>
<path d="M3.08 20.58L8.47 25.97C7.525 28.805 7 31.85 7 35C7 50.435 19.565 63 35 63C50.435 63 63 50.435 63 35C63 19.565 50.435 7 35 7C31.85 7 28.805 7.525 25.97 8.47L20.615 3.115C25.025 1.12 29.89 0 35 0C54.32 0 70 15.68 70 35C70 54.32 54.32 70 35 70C15.68 70 0 54.32 0 35C0 29.855 1.12 24.99 3.08 20.58Z" fill="white"/>
</svg>
