<svg width="58" height="70" viewBox="0 0 58 70" fill="none" xmlns="http://www.w3.org/2000/svg">
<path d="M28.1691 55.5173L23.9787 53.1035L29.4991 43.4483H20.1118L29.7501 26.5518L33.9429 28.9656L28.4297 38.6207H37.8194L28.1691 55.5173V55.5173Z" fill="#124A80"/>
<path d="M53.1035 41.0345C53.1035 45.8085 51.6878 50.4753 49.0355 54.4448C46.3832 58.4143 42.6133 61.5081 38.2027 63.335C33.7921 65.162 28.9388 65.64 24.2565 64.7086C19.5742 63.7772 15.2732 61.4783 11.8974 58.1026C8.52169 54.7268 6.22277 50.4259 5.2914 45.7436C4.36004 41.0613 4.83805 36.2079 6.66499 31.7973C8.49193 27.3867 11.5858 23.6168 15.5552 20.9645C19.5247 18.3122 24.1915 16.8965 28.9655 16.8965H38.6207V28.9655L53.1035 14.4828L38.6207 0V12.069H28.9655C23.2367 12.069 17.6365 13.7678 12.8732 16.9505C8.1098 20.1333 4.39721 24.6571 2.20488 29.9499C0.0125504 35.2426 -0.561064 41.0666 0.556577 46.6854C1.67422 52.3041 4.43292 57.4653 8.48382 61.5162C12.5347 65.5671 17.6959 68.3258 23.3146 69.4434C28.9334 70.5611 34.7574 69.9875 40.0502 67.7951C45.3429 65.6028 49.8667 61.8902 53.0495 57.1269C56.2322 52.3635 57.931 46.7633 57.931 41.0345H53.1035Z" fill="white"/>
</svg>
