<svg width="76" height="76" viewBox="0 0 76 76" fill="none" xmlns="http://www.w3.org/2000/svg">
<path d="M27.5 66H17C13.287 66 9.72601 64.525 7.10051 61.8995C4.475 59.274 3 55.713 3 52V20.5C3 16.787 4.475 13.226 7.10051 10.6005C9.72601 7.975 13.287 6.5 17 6.5H55.5C59.213 6.5 62.774 7.975 65.3995 10.6005C68.025 13.226 69.5 16.787 69.5 20.5V31" stroke="white" stroke-width="6" stroke-linecap="round" stroke-linejoin="round"/>
<path d="M24 3V10" stroke="white" stroke-width="6" stroke-linecap="round" stroke-linejoin="round"/>
<path d="M48.5 3V10" stroke="white" stroke-width="6" stroke-linecap="round" stroke-linejoin="round"/>
<path d="M3 24H69.5" stroke="white" stroke-width="6" stroke-linecap="round" stroke-linejoin="round"/>
<path d="M60.75 50.7502L55.5 56.0002" stroke="#124A80" stroke-width="6" stroke-linecap="round" stroke-linejoin="round"/>
<path d="M55.5 73C65.165 73 73 65.165 73 55.5C73 45.835 65.165 38 55.5 38C45.835 38 38 45.835 38 55.5C38 65.165 45.835 73 55.5 73Z" stroke="#124A80" stroke-width="6" stroke-linecap="round" stroke-linejoin="round"/>
</svg>
